<svg width="75" height="19" viewBox="0 0 75 19" fill="none" xmlns="http://www.w3.org/2000/svg">
<path d="M17.4234 17.3141H13.309L12.0504 14.1318H5.19332L4.04659 17.3141H0L6.18223 1.24187H10.6112L17.4234 17.3141ZM8.45307 5.08237L6.20495 11.3271H10.9263L8.45307 5.08237ZM32.369 1.24187H35.6963V17.3141H31.8739V7.27489L27.7373 12.3175H27.153L23.0166 7.27489V17.3139H19.1942V1.24187H22.5215L27.4449 7.20393L32.369 1.24187ZM45.3812 1.24187C50.9789 1.24187 53.8561 4.89409 53.8561 9.3009C53.8561 13.9197 51.0688 17.3141 44.9538 17.3141H38.6137V1.24187H45.3812ZM42.4358 14.3683H44.9309C48.7753 14.3683 49.922 11.6341 49.922 9.27709C49.922 6.51962 48.5055 4.18723 44.8859 4.18723H42.4357L42.4358 14.3683ZM61.4605 5.05273L56.641 0H74.1864V18.3918L69.3669 13.3397V5.05273H61.4605ZM61.4549 6.0652L56.4929 11.2662V18.5466H63.4376L68.3993 13.3456H61.4549V6.0652Z" fill="#9F9F9F"></path>
</svg>