<svg xmlns="http://www.w3.org/2000/svg" viewBox="0 0 691 691" fill="none">
  <rect width="691" height="691" fill="white"/>
  <g transform="translate(60, 266)" fill="black">
    <path d="M 488.641 30.935 C 497.054 30.935 504.315 33.125 510.423 37.503 C 516.647 41.766 521.488 47.585 524.946 54.959 C 528.403 62.217 530.132 70.282 530.132 79.154 C 530.132 88.14 528.403 96.264 524.946 103.522 C 521.488 110.781 516.647 116.6 510.423 120.978 C 504.315 125.241 497.054 127.372 488.641 127.372 C 483.801 127.372 479.305 126.507 475.156 124.779 C 471.007 123.051 467.088 120.46 463.4 117.003 L 463.4 159 L 433.84 159 L 433.84 32.663 L 460.98 32.663 L 460.98 43.206 C 464.783 39.174 468.99 36.121 473.6 34.047 C 478.21 31.973 483.224 30.935 488.641 30.935 Z M 481.552 57.55 C 478.556 57.551 475.675 58.357 472.909 59.97 C 470.143 61.583 467.895 64.003 466.166 67.229 C 464.553 70.34 463.746 74.373 463.746 79.328 C 463.747 84.282 464.612 88.371 466.34 91.597 C 468.069 94.708 470.258 97.012 472.909 98.51 C 475.675 100.008 478.556 100.757 481.552 100.757 C 486.047 100.757 490.139 99.029 493.827 95.572 C 497.515 92.001 499.36 86.527 499.36 79.154 C 499.36 71.895 497.515 66.481 493.827 62.909 C 490.139 59.337 486.047 57.55 481.552 57.55 Z" fill-rule="evenodd"/>
    <path d="M 53.247 0 C 63.158 0 71.917 1.785 79.524 5.357 C 87.246 8.928 93.411 13.999 98.021 20.566 C 102.746 27.018 105.397 34.738 105.973 43.725 L 72.954 43.725 C 72.723 39.923 71.744 36.64 70.015 33.875 C 68.286 31.109 66.039 28.976 63.273 27.479 C 60.507 25.981 57.279 25.232 53.592 25.232 C 50.365 25.232 47.599 25.751 45.295 26.788 C 42.989 27.825 41.202 29.266 39.934 31.109 C 38.667 32.837 38.033 34.853 38.033 37.157 C 38.033 39 38.552 40.614 39.59 41.997 C 40.742 43.264 42.241 44.359 44.085 45.281 C 45.928 46.087 47.945 46.721 50.134 47.181 L 74.164 51.847 C 85.228 54.036 93.642 57.897 99.405 63.428 C 105.167 68.843 108.048 76.044 108.048 85.031 C 108.048 93.557 105.859 100.988 101.48 107.325 C 97.216 113.662 91.165 118.616 83.328 122.188 C 75.491 125.644 66.154 127.372 55.32 127.372 C 44.602 127.372 35.21 125.587 27.142 122.015 C 19.19 118.328 12.85 113.143 8.125 106.46 C 3.515 99.778 0.807 91.886 0 82.784 L 33.019 82.784 C 33.25 88.659 35.209 93.326 38.897 96.782 C 42.7 100.238 47.945 101.966 54.629 101.966 C 58.432 101.966 61.717 101.506 64.483 100.585 C 67.249 99.663 69.382 98.281 70.88 96.437 C 72.494 94.594 73.3 92.404 73.3 89.869 C 73.3 87.219 72.091 84.972 69.67 83.129 C 67.366 81.17 64.368 79.845 60.681 79.154 L 38.033 74.834 C 33.077 73.912 28.582 72.471 24.548 70.513 C 20.515 68.554 17 66.134 14.004 63.254 C 11.122 60.258 8.875 56.802 7.261 52.885 C 5.763 48.852 5.014 44.358 5.014 39.404 C 5.014 31.684 7.088 24.886 11.237 19.01 C 15.386 13.019 21.092 8.353 28.352 5.012 C 35.613 1.671 43.912 0 53.247 0 Z" fill-rule="nonzero"/>
    <path d="M 157.449 32.663 L 182.863 32.663 L 182.863 58.415 L 157.449 58.415 L 157.449 86.759 C 157.449 91.252 158.429 94.593 160.388 96.782 C 162.347 98.856 165.344 99.894 169.378 99.894 C 171.798 99.894 174.103 99.605 176.293 99.029 C 178.598 98.453 180.558 97.647 182.172 96.61 L 182.172 122.36 C 178.945 124.203 175.659 125.471 172.316 126.163 C 168.975 126.969 165.229 127.372 161.081 127.372 C 154.166 127.372 148.229 126.047 143.273 123.397 C 138.318 120.747 134.514 116.888 131.863 111.819 C 129.213 106.749 127.887 100.7 127.887 93.672 L 127.887 58.415 L 110.6 58.415 L 110.6 32.663 L 127.887 32.663 L 127.887 5.357 L 157.449 5.357 L 157.449 32.663 Z" fill-rule="nonzero"/>
    <path d="M 232.03 30.935 C 244.823 30.935 254.793 34.22 261.938 40.787 C 269.084 47.355 272.657 56.514 272.657 68.266 L 272.657 125.644 L 248.8 125.644 L 248.8 116.657 C 245.573 120.344 241.826 123.051 237.562 124.779 C 233.298 126.507 228.169 127.372 222.176 127.372 C 212.495 127.372 204.659 124.722 198.666 119.422 C 192.788 114.007 189.848 106.922 189.848 98.165 C 189.848 89.063 193.421 82.149 200.567 77.425 C 207.712 72.587 217.913 70.166 231.166 70.166 C 233.701 70.166 236.121 70.282 238.426 70.513 C 240.731 70.628 242.864 70.858 244.824 71.204 L 244.824 66.71 C 244.823 62.678 243.671 59.567 241.366 57.378 C 239.176 55.189 236.006 54.094 231.857 54.094 C 227.824 54.094 224.597 55.189 222.176 57.378 C 219.871 59.567 218.43 62.678 217.854 66.71 L 191.23 66.71 C 191.807 59.452 193.881 53.172 197.454 47.872 C 201.027 42.457 205.752 38.309 211.63 35.429 C 217.623 32.433 224.423 30.935 232.03 30.935 Z M 233.067 87.622 C 228.112 87.622 224.308 88.429 221.658 90.041 C 219.007 91.654 217.681 94.075 217.681 97.3 C 217.681 100.296 218.661 102.659 220.62 104.387 C 222.694 106.115 225.518 106.979 229.091 106.979 C 234.047 106.979 237.907 105.884 240.673 103.695 C 243.439 101.506 244.823 98.511 244.824 94.709 L 244.824 88.832 C 242.634 88.371 240.616 88.084 238.772 87.969 C 236.928 87.738 235.027 87.622 233.067 87.622 Z" fill-rule="evenodd"/>
    <path d="M 392.558 30.935 C 401.778 30.935 409.328 33.931 415.206 39.922 C 421.083 45.914 424.023 54.556 424.023 65.847 L 424.023 125.644 L 394.461 125.644 L 394.461 75.006 C 394.461 69.591 393.366 65.327 391.176 62.216 C 389.102 59.106 385.931 57.55 381.667 57.55 C 379.247 57.551 376.999 58.185 374.925 59.453 C 372.851 60.605 371.18 62.506 369.913 65.156 C 368.645 67.691 368.01 71.031 368.01 75.179 L 368.01 125.644 L 338.448 125.644 L 338.448 75.006 C 338.448 69.591 337.353 65.327 335.163 62.216 C 333.088 59.106 329.92 57.551 325.656 57.55 C 323.12 57.55 320.816 58.185 318.741 59.453 C 316.667 60.605 314.995 62.506 313.727 65.156 C 312.575 67.691 311.999 71.031 311.999 75.179 L 311.999 125.644 L 282.437 125.644 L 282.437 32.663 L 309.577 32.663 L 309.577 44.071 C 313.15 39.924 317.012 36.696 321.161 34.391 C 325.31 32.087 330.382 30.935 336.375 30.935 C 342.252 30.935 347.438 32.146 351.933 34.565 C 356.543 36.985 360.116 40.557 362.652 45.281 C 366.685 40.788 370.949 37.272 375.444 34.738 C 380.054 32.203 385.759 30.935 392.558 30.935 Z" fill-rule="nonzero"/>
    <path d="M 549.744 12.621 C 552.603 12.621 554.685 13.105 556.01 14.072 C 557.355 15.017 558.007 16.53 558.007 18.611 C 558.007 20.04 557.671 21.218 556.977 22.143 C 556.283 23.046 555.253 23.739 553.845 24.159 C 554.622 24.349 555.295 24.749 555.904 25.358 C 556.514 25.968 557.123 26.893 557.733 28.154 L 560.783 34.291 L 554.831 34.291 L 552.183 28.91 C 551.657 27.838 551.11 27.082 550.563 26.703 C 550.017 26.304 549.281 26.093 548.377 26.093 L 546.8 26.093 L 546.8 34.291 L 541.208 34.291 L 541.208 12.621 L 549.744 12.621 Z M 546.8 22.248 L 549.155 22.248 C 550.311 22.248 551.153 22.016 551.657 21.575 C 552.162 21.155 552.434 20.44 552.434 19.432 C 552.434 18.444 552.162 17.75 551.657 17.308 C 551.153 16.888 550.311 16.677 549.155 16.677 L 546.8 16.677 L 546.8 22.248 Z" fill-rule="evenodd"/>
    <path d="M 550.291 3.226 C 561.728 3.226 571 12.496 571 23.929 C 571 35.362 561.727 44.632 550.291 44.632 C 538.854 44.632 529.582 35.362 529.581 23.929 C 529.582 12.496 538.854 3.227 550.291 3.226 Z M 550.291 7.431 C 541.176 7.432 533.788 14.817 533.788 23.929 C 533.789 33.041 541.176 40.428 550.291 40.429 C 559.405 40.428 566.795 33.041 566.795 23.929 C 566.795 14.817 559.405 7.432 550.291 7.431 Z" fill-rule="evenodd"/>
  </g>
</svg>
